<svg xmlns="http://www.w3.org/2000/svg" width="645" height="468" viewBox="0 0 645 468">
<g>
<path d="M 345.36 426.50 C339.99,428.32 327.81,428.35 323.00,426.55 C319.72,425.33 284.83,406.04 241.50,381.51 C219.60,369.11 213.29,365.55 192.00,353.59 C174.66,343.86 171.45,341.21 167.16,333.12 C164.89,328.84 155.00,299.81 155.00,297.42 C155.00,297.19 148.30,297.00 140.11,297.00 C128.10,297.00 123.98,296.62 118.86,295.03 C105.25,290.81 93.23,279.68 87.86,266.32 C85.80,261.22 85.51,258.83 85.51,246.95 L 85.50 233.39 L 89.18 225.95 C93.84,216.54 98.82,210.72 106.39,205.82 C114.92,200.31 123.22,198.00 134.50,198.00 C142.41,198.00 143.89,197.74 144.48,196.25 C144.86,195.29 149.42,180.36 154.61,163.08 C166.26,124.33 168.66,119.80 181.34,112.63 C243.12,77.67 320.70,34.90 324.00,33.98 C325.92,33.45 330.98,33.01 335.24,33.01 C344.53,33.00 349.00,34.53 362.07,42.21 C367.26,45.26 375.55,50.00 380.50,52.74 C385.45,55.49 391.08,58.63 393.00,59.72 C420.05,75.09 438.95,85.74 460.50,97.78 C488.57,113.45 493.10,116.28 497.12,120.65 C503.39,127.48 507.13,137.67 519.07,180.50 C521.98,190.95 524.47,199.65 524.61,199.84 C524.74,200.03 528.92,199.61 533.88,198.91 C540.93,197.91 544.29,197.89 549.20,198.80 C568.27,202.35 583.07,218.02 586.64,238.45 C590.18,258.73 581.55,279.38 565.11,289.93 C556.18,295.66 553.07,296.33 532.54,296.94 L 513.57 297.50 L 512.65 301.00 C509.08,314.49 502.58,332.17 499.53,336.69 C494.85,343.62 492.95,344.95 467.99,358.77 C456.17,365.31 440.20,374.30 432.50,378.74 C401.60,396.54 349.53,425.08 345.36,426.50 ZM 312.50 389.81 C317.30,392.33 322.04,392.55 326.46,390.45 C331.45,388.08 332.00,385.75 332.00,366.91 L 332.00 349.92 L 327.75 347.38 C325.41,345.98 319.23,342.46 314.00,339.56 C308.77,336.66 293.25,327.98 279.50,320.27 C265.75,312.57 251.33,304.55 247.47,302.45 L 240.43 298.64 L 227.47 305.74 C210.76,314.89 207.19,317.38 206.42,320.47 C204.74,327.17 208.76,331.86 223.00,339.77 C228.77,342.98 250.38,355.08 271.00,366.66 C291.62,378.23 310.30,388.65 312.50,389.81 ZM 342.01 390.25 C343.93,391.21 346.23,392.00 347.12,392.00 C350.49,392.00 357.00,388.98 373.00,379.96 C382.08,374.85 395.80,367.22 403.50,363.01 C456.91,333.77 457.76,333.25 460.60,327.80 C462.80,323.56 462.33,320.11 459.14,317.13 C457.57,315.67 449.99,310.97 442.28,306.69 L 428.28 298.92 L 422.89 301.83 C387.11,321.16 339.16,347.70 337.34,349.16 C335.63,350.54 335.56,382.66 337.26,386.00 C337.96,387.38 340.10,389.29 342.01,390.25 ZM 229.83 155.59 C235.15,158.53 239.89,160.96 240.36,160.97 C240.84,160.99 252.76,154.63 266.86,146.85 C280.96,139.07 301.05,128.00 311.50,122.25 C321.95,116.50 330.83,111.28 331.23,110.65 C331.64,110.02 331.98,101.80 331.98,92.38 C332.00,76.62 331.84,75.06 329.95,72.66 C327.23,69.20 321.38,67.62 316.98,69.16 C313.93,70.22 291.83,82.27 244.00,108.94 C212.64,126.43 210.02,128.06 208.47,131.07 C206.95,134.00 206.56,138.68 207.60,141.41 C208.26,143.11 214.66,147.20 229.83,155.59 ZM 416.00 155.15 C423.01,159.07 427.22,160.85 428.67,160.51 C429.87,160.23 437.29,156.29 445.16,151.75 C461.28,142.46 463.06,140.48 461.13,134.03 C460.52,131.99 459.19,129.58 458.18,128.66 C457.17,127.75 443.78,119.98 428.42,111.41 C355.46,70.67 352.17,68.75 348.87,68.72 C348.70,68.72 348.54,68.72 348.37,68.72 C348.22,68.72 348.06,68.73 347.89,68.73 C343.42,68.73 339.26,71.22 337.26,75.10 C335.78,77.98 335.51,105.59 336.93,109.32 C337.48,110.76 340.08,112.99 343.18,114.69 C348.64,117.68 397.25,144.69 416.00,155.15 ZM 475.56 275.57 C481.87,277.91 493.65,276.98 499.26,273.69 C507.71,268.74 512.00,261.55 512.00,252.35 C512.00,245.87 509.98,240.62 505.86,236.36 C503.75,234.19 503.19,233.00 504.02,232.49 C506.19,231.15 509.98,221.56 509.95,217.50 C509.87,209.04 504.84,200.52 497.69,196.79 C491.95,193.79 480.41,193.73 474.00,196.65 C462.07,202.10 456.95,214.69 462.08,225.98 C463.20,228.45 464.80,231.22 465.64,232.15 C467.01,233.67 466.96,234.04 465.15,235.85 C452.93,248.07 458.48,269.22 475.56,275.57 ZM 347.78 275.06 C355.99,278.27 368.00,277.03 373.07,272.44 C374.93,270.75 375.00,270.78 375.00,273.35 C375.00,275.97 375.09,276.00 382.00,276.00 L 389.00 276.00 L 389.00 195.00 L 375.00 195.00 L 375.00 208.50 C375.00,215.93 374.75,222.00 374.45,222.00 C374.15,222.00 372.46,221.24 370.70,220.30 C365.64,217.62 351.79,217.87 345.95,220.74 C335.35,225.97 329.52,235.64 329.51,248.00 C329.50,260.94 335.89,270.41 347.78,275.06 ZM 220.32 275.14 C231.15,278.89 242.21,276.69 250.22,269.20 C257.74,262.17 259.48,258.19 259.48,248.00 C259.48,237.95 257.46,232.60 251.41,226.67 C244.82,220.22 240.71,218.58 231.00,218.54 C223.66,218.51 221.72,218.88 216.76,221.32 C206.52,226.35 200.85,235.81 200.75,248.01 C200.66,260.25 208.44,271.04 220.32,275.14 ZM 401.00 195.00 L 401.00 276.00 L 415.00 276.00 L 415.00 265.00 C415.00,258.95 415.16,254.00 415.35,254.00 C415.55,254.00 420.58,258.95 426.55,265.00 L 437.38 276.00 L 456.48 276.00 L 441.58 261.08 L 426.68 246.16 L 439.37 232.83 L 452.05 219.50 L 443.33 219.21 L 434.62 218.92 L 415.00 238.46 L 415.00 195.00 ZM 200.77 190.75 C200.93,199.69 201.45,207.00 201.94,207.00 C202.43,207.00 202.98,206.55 203.17,205.99 C203.36,205.43 204.60,204.77 205.93,204.51 C207.26,204.26 208.61,203.67 208.93,203.21 C209.86,201.86 224.18,197.99 228.25,198.00 C231.91,198.00 232.00,197.91 232.03,194.25 C232.05,192.19 232.98,185.55 234.10,179.50 C235.22,173.45 236.22,167.67 236.32,166.65 C236.46,165.24 232.64,162.59 220.25,155.51 C211.31,150.41 204.00,146.46 204.00,146.74 C204.00,147.02 203.41,146.75 202.68,146.15 C199.97,143.90 186.86,150.34 188.56,153.09 C188.87,153.59 188.61,154.00 188.00,154.00 C187.39,154.00 187.16,154.45 187.50,155.00 C187.84,155.55 187.65,156.00 187.08,156.00 C186.47,156.00 186.29,157.21 186.65,159.00 C187.03,160.91 186.84,162.00 186.12,162.00 C185.42,162.00 185.00,164.21 185.00,167.96 L 185.00 173.92 L 192.75 174.21 L 200.50 174.50 ZM 286.99 276.13 C288.37,276.58 292.65,276.81 296.50,276.63 C304.82,276.26 310.05,273.90 315.20,268.20 C320.85,261.94 321.50,258.83 321.49,238.00 L 321.47 219.50 L 316.55 219.19 C313.85,219.02 310.59,219.14 309.32,219.46 L 307.00 220.04 L 307.00 238.38 C307.00,259.25 306.47,260.88 298.98,263.12 C295.70,264.11 294.33,264.01 290.51,262.56 C283.49,259.88 283.00,258.22 283.00,237.05 L 283.00 219.00 L 268.85 219.00 L 269.18 239.25 C269.46,256.69 269.76,259.99 271.36,263.00 C274.85,269.54 279.93,273.81 286.99,276.13 ZM 125.84 275.61 C138.29,280.05 154.67,273.38 161.31,261.17 L 164.12 256.00 L 156.25 256.00 C148.79,256.00 148.22,256.16 145.48,259.02 C139.79,264.96 131.55,265.36 124.22,260.04 C119.48,256.61 117.54,251.79 118.27,245.27 C119.15,237.50 124.82,232.01 132.76,231.25 C138.39,230.71 141.94,232.18 146.44,236.91 C149.20,239.81 149.82,240.00 156.69,240.00 C160.71,240.00 164.00,239.66 163.99,239.25 C163.97,237.32 157.78,227.99 154.93,225.59 C148.40,220.10 144.15,218.60 135.00,218.55 C125.02,218.50 119.53,220.54 113.55,226.52 C107.87,232.20 105.02,239.12 105.01,247.28 C104.99,260.96 112.17,270.72 125.84,275.61 ZM 534.99 276.07 C539.30,277.38 548.56,277.07 553.11,275.46 C565.31,271.16 570.69,256.85 563.01,249.16 C559.98,246.13 555.50,244.26 544.60,241.47 C538.33,239.86 534.00,237.30 534.00,235.19 C534.00,234.75 534.64,233.51 535.42,232.44 C536.54,230.92 538.05,230.50 542.50,230.50 C547.63,230.50 548.44,230.81 551.07,233.75 C553.68,236.67 554.53,237.00 559.49,237.00 C564.36,237.00 565.00,236.77 565.00,234.97 C565.00,225.08 552.20,216.88 539.14,218.41 C528.29,219.69 521.00,226.23 521.00,234.68 C521.00,244.74 526.04,249.61 540.04,253.09 C549.08,255.34 553.00,257.24 553.00,259.37 C553.00,261.39 549.73,263.90 546.17,264.62 C542.22,265.41 534.41,262.63 532.95,259.91 C532.11,258.33 530.81,258.00 525.46,258.00 C518.44,258.00 518.07,258.40 520.06,263.68 C522.04,268.93 528.14,273.98 534.99,276.07 ZM 436.53 197.75 C436.78,198.53 438.81,199.00 441.87,199.00 C446.79,199.00 446.82,198.98 449.81,193.69 C451.45,190.77 454.51,186.88 456.60,185.04 C462.12,180.20 471.96,175.90 479.00,175.27 C482.30,174.97 485.00,174.33 485.00,173.85 C485.00,170.95 480.64,154.11 479.39,152.20 C477.21,148.86 472.01,146.01 468.09,146.00 C463.71,146.00 430.61,164.54 431.39,166.56 C432.84,170.35 434.00,176.57 435.01,186.00 C435.63,191.77 436.31,197.06 436.53,197.75 ZM 181.02 273.75 C183.44,274.99 187.13,276.00 189.21,276.00 L 193.00 276.00 L 193.00 269.50 C193.00,263.76 192.78,263.00 191.08,263.00 C190.89,263.00 190.70,263.00 190.52,263.00 C189.53,263.01 188.76,263.02 188.16,262.70 C185.99,261.58 185.99,256.31 186.00,232.20 C186.00,230.98 186.00,229.71 186.00,228.39 L 186.00 195.00 L 173.09 195.00 L 172.48 198.25 C172.14,200.04 172.01,215.99 172.18,233.68 C172.54,270.19 172.35,269.32 181.02,273.75 ZM 367.02 261.75 C364.57,262.99 361.19,264.00 359.50,264.00 C355.03,264.00 347.87,260.03 345.26,256.10 C340.61,249.11 342.86,239.12 350.32,233.59 C354.48,230.51 364.30,230.64 368.77,233.83 C373.19,236.98 375.37,241.50 375.40,247.54 C375.44,254.24 372.71,258.87 367.02,261.75 ZM 238.86 261.27 C234.72,264.34 228.32,264.56 223.06,261.81 C216.49,258.39 214.50,255.11 214.50,247.68 C214.50,240.17 217.18,235.73 223.40,232.91 C230.85,229.52 236.56,230.73 242.45,236.93 C244.94,239.55 245.47,241.02 245.79,246.27 C246.12,251.54 245.82,253.02 243.84,255.91 C242.55,257.78 240.31,260.19 238.86,261.27 ZM 194.50 312.60 C200.10,315.07 202.83,314.29 217.92,305.92 C225.94,301.48 232.81,297.54 233.20,297.17 C233.58,296.80 223.16,296.37 210.03,296.22 C196.90,296.06 185.95,296.29 185.70,296.72 C184.88,298.12 187.64,306.95 189.60,309.14 C190.64,310.31 192.85,311.87 194.50,312.60 ZM 460.50 311.45 C465.58,314.61 470.66,314.70 475.10,311.71 C478.65,309.33 480.80,305.81 482.02,300.42 L 482.73 297.25 L 460.96 296.52 C448.12,296.09 438.51,296.17 437.55,296.71 C436.25,297.44 438.06,298.82 446.20,303.30 C451.87,306.41 458.30,310.08 460.50,311.45 ZM 491.32 262.39 C482.85,266.42 473.46,261.84 472.29,253.09 C471.79,249.36 472.07,248.69 475.75,245.01 C479.48,241.28 480.16,241.00 485.37,241.00 C490.06,241.00 491.46,241.44 494.05,243.75 C500.17,249.22 498.76,258.84 491.32,262.39 ZM 492.60 224.60 C488.57,228.63 483.42,229.16 478.35,226.07 C468.96,220.34 473.99,207.00 485.55,207.00 C490.73,207.00 496.00,212.29 496.00,217.50 C496.00,220.37 495.24,221.96 492.60,224.60 ZM 324.20 160.70 C327.18,163.78 327.83,164.00 334.05,164.00 C340.08,164.00 341.00,163.72 343.85,160.99 C345.58,159.34 347.00,157.35 347.00,156.59 C347.00,155.07 336.99,149.00 334.49,149.00 C332.03,149.00 321.00,154.90 321.00,156.22 C321.00,156.87 322.44,158.89 324.20,160.70 Z" fill="rgb(44,38,77)"/>
<path d="M 0.00 0.00 L 488.96 0.00 C340.68,0.00 332.97,0.09 333.83,1.75 C334.32,2.71 334.52,4.09 334.26,4.80 C333.72,6.32 339.84,18.98 341.90,20.59 C343.05,21.49 342.91,21.79 341.15,22.25 C339.52,22.68 339.00,23.58 339.00,25.96 C339.00,28.55 339.52,29.29 342.00,30.15 C343.65,30.72 344.78,31.55 344.51,31.99 C344.24,32.43 346.15,33.78 348.76,35.00 C349.92,35.54 351.78,36.51 353.93,37.66 C346.56,33.88 342.29,33.00 335.24,33.01 C330.98,33.01 325.92,33.45 324.00,33.98 C320.70,34.90 243.12,77.67 181.34,112.63 C168.66,119.80 166.26,124.33 154.61,163.08 C149.42,180.36 144.86,195.29 144.48,196.25 C143.89,197.74 142.41,198.00 134.50,198.00 C123.22,198.00 114.92,200.31 106.39,205.82 C98.82,210.72 93.84,216.54 89.18,225.95 L 85.50 233.39 L 85.51 246.95 C85.51,258.83 85.80,261.22 87.86,266.32 C93.23,279.68 105.25,290.81 118.86,295.03 C123.98,296.62 128.10,297.00 140.11,297.00 C148.30,297.00 155.00,297.19 155.00,297.42 C155.00,299.81 164.89,328.84 167.16,333.12 C171.45,341.21 174.66,343.86 192.00,353.59 C213.29,365.55 219.60,369.11 241.50,381.51 C284.83,406.04 319.72,425.33 323.00,426.55 C327.81,428.35 339.99,428.32 345.36,426.50 C347.90,425.63 368.23,414.70 390.71,402.26 C385.79,405.01 381.02,407.66 376.77,410.02 C349.56,425.11 349.08,425.43 351.02,427.24 C353.03,429.11 353.72,430.56 352.13,429.58 C351.65,429.29 349.96,430.16 348.38,431.52 C346.80,432.88 345.14,434.00 344.69,434.00 C344.25,434.00 344.12,434.38 344.40,434.84 C344.69,435.31 344.41,437.45 343.79,439.59 C343.16,441.74 342.62,444.03 342.57,444.68 C342.49,445.95 336.14,452.00 334.89,452.00 C333.81,452.00 331.00,454.97 331.00,456.10 C331.00,456.63 331.94,457.41 333.09,457.84 C335.02,458.55 334.89,458.81 331.28,461.30 C329.14,462.79 326.84,464.00 326.15,464.00 C325.47,464.00 323.95,464.90 322.77,466.00 L 320.62 468.00 L 0.00 468.00 ZM 200.25 174.49 L 185.00 173.92 L 185.00 167.96 C185.00,166.50 185.06,165.28 185.18,164.33 C185.14,166.71 185.82,170.22 186.87,171.27 C187.44,171.84 190.47,172.43 193.61,172.59 C196.93,172.76 199.65,173.42 200.14,174.19 C200.17,174.25 200.21,174.35 200.25,174.49 ZM 200.77 190.75 L 200.54 176.75 C200.80,179.84 200.98,185.31 200.98,191.25 C200.99,196.19 201.12,200.51 201.32,203.37 C201.07,200.38 200.86,195.83 200.77,190.75 ZM 348.51 428.01 C348.84,428.56 349.54,429.00 350.06,429.00 C351.50,429.00 351.18,428.28 349.45,427.62 C348.56,427.28 348.16,427.44 348.51,428.01 ZM 443.25 372.62 C451.00,368.24 460.36,363.00 467.99,358.77 C481.03,351.55 487.77,347.74 491.91,344.76 C487.77,347.74 481.03,351.56 467.99,358.78 C461.21,362.54 452.02,367.67 443.25,372.62 ZM 186.70 161.58 C186.90,161.09 186.89,160.21 186.65,159.00 C186.90,160.27 186.92,161.12 186.70,161.58 ZM 201.94 207.00 C202.44,206.99 202.99,206.54 203.17,205.99 C202.98,206.55 202.43,207.00 201.94,207.00 Z" fill="rgb(150,211,241)"/>
<path d="M 312.50 389.81 C310.30,388.65 291.62,378.23 271.00,366.66 C250.38,355.08 228.77,342.98 223.00,339.77 C208.76,331.86 204.74,327.17 206.42,320.47 C207.19,317.38 210.76,314.89 227.47,305.74 L 240.43 298.64 L 247.47 302.45 C251.33,304.55 265.75,312.57 279.50,320.27 C293.25,327.98 308.77,336.66 314.00,339.56 C319.23,342.46 325.41,345.98 327.75,347.38 L 332.00 349.92 L 332.00 366.91 C332.00,385.75 331.45,388.08 326.46,390.45 C322.04,392.55 317.30,392.33 312.50,389.81 ZM 229.83 155.59 C214.66,147.20 208.26,143.11 207.60,141.41 C206.56,138.68 206.95,134.00 208.47,131.07 C210.02,128.06 212.64,126.43 244.00,108.94 C291.83,82.27 313.93,70.22 316.98,69.16 C321.38,67.62 327.23,69.20 329.95,72.66 C331.84,75.06 332.00,76.62 331.98,92.38 C331.98,101.80 331.64,110.02 331.23,110.65 C330.83,111.28 321.95,116.50 311.50,122.25 C301.05,128.00 280.96,139.07 266.86,146.85 C252.76,154.63 240.84,160.99 240.36,160.97 C239.89,160.96 235.15,158.53 229.83,155.59 ZM 416.00 155.15 C397.25,144.69 348.64,117.68 343.18,114.69 C340.08,112.99 337.48,110.76 336.93,109.32 C335.51,105.59 335.78,77.98 337.26,75.10 C339.26,71.22 343.42,68.73 347.89,68.73 C348.06,68.73 348.22,68.72 348.37,68.72 C348.54,68.72 348.70,68.72 348.87,68.72 C352.17,68.75 355.46,70.67 428.42,111.41 C443.78,119.98 457.17,127.75 458.18,128.66 C459.19,129.58 460.52,131.99 461.13,134.03 C463.06,140.48 461.28,142.46 445.16,151.75 C437.29,156.29 429.87,160.23 428.67,160.51 C427.22,160.85 423.01,159.07 416.00,155.15 ZM 342.01 390.25 C340.10,389.29 337.96,387.38 337.26,386.00 C335.56,382.66 335.63,350.54 337.34,349.16 C339.16,347.70 387.11,321.16 422.89,301.83 L 428.28 298.92 L 442.28 306.69 C443.24,307.22 444.20,307.76 445.14,308.30 C444.58,307.99 444.00,307.66 443.41,307.33 C430.96,300.42 427.46,299.36 424.05,301.47 C422.37,302.51 419.80,308.05 420.35,309.47 C420.62,310.18 420.44,311.16 419.94,311.66 C419.44,312.16 418.62,315.25 418.11,318.53 C417.61,321.82 416.08,327.20 414.70,330.50 C413.33,333.80 411.91,339.44 411.55,343.03 C411.19,346.62 410.49,350.21 410.00,351.00 C409.34,352.06 409.82,352.76 411.80,353.64 L 411.97 353.72 C414.01,354.62 414.77,354.96 414.88,354.81 C414.95,354.72 414.79,354.46 414.54,354.06 L 414.50 354.00 C413.62,352.58 415.34,352.76 416.95,354.25 C417.76,355.01 418.04,355.05 417.65,354.35 C417.30,353.72 417.71,352.94 418.56,352.62 C419.50,352.26 419.85,352.44 419.45,353.08 C418.34,354.87 440.72,342.83 451.57,336.14 C444.47,340.56 430.91,348.01 403.50,363.01 C395.80,367.22 382.08,374.85 373.00,379.96 C357.00,388.98 350.49,392.00 347.12,392.00 C346.23,392.00 343.93,391.21 342.01,390.25 ZM 200.25 174.49 C200.21,174.35 200.17,174.25 200.14,174.19 C199.65,173.42 196.93,172.76 193.61,172.59 C190.47,172.43 187.44,171.84 186.87,171.27 C185.82,170.22 185.14,166.71 185.18,164.33 C185.37,162.83 185.69,162.00 186.12,162.00 C186.39,162.00 186.58,161.85 186.70,161.58 C186.92,161.12 186.90,160.27 186.65,159.00 C186.29,157.21 186.47,156.00 187.08,156.00 C187.65,156.00 187.84,155.55 187.50,155.00 C187.16,154.45 187.39,154.00 188.00,154.00 C188.61,154.00 188.87,153.59 188.56,153.09 C186.86,150.34 199.97,143.90 202.68,146.15 C203.41,146.75 204.00,147.02 204.00,146.74 C204.00,146.46 211.31,150.41 220.25,155.51 C232.64,162.59 236.46,165.24 236.32,166.65 C236.22,167.67 235.22,173.45 234.10,179.50 C232.98,185.55 232.05,192.19 232.03,194.25 C232.00,197.91 231.91,198.00 228.25,198.00 C224.18,197.99 209.86,201.86 208.93,203.21 C208.61,203.67 207.26,204.26 205.93,204.51 C204.60,204.77 203.36,205.43 203.17,205.99 L 203.17 205.99 C202.99,206.54 202.44,206.99 201.94,207.00 C201.73,206.98 201.51,205.62 201.32,203.37 L 201.32 203.37 C201.12,200.51 200.99,196.19 200.98,191.25 C200.98,185.31 200.80,179.84 200.54,176.75 L 200.50 174.50 ZM 436.53 197.75 C436.31,197.06 435.63,191.77 435.01,186.00 C434.00,176.57 432.84,170.35 431.39,166.56 C430.61,164.54 463.71,146.00 468.09,146.00 C472.01,146.01 477.21,148.86 479.39,152.20 C480.64,154.11 485.00,170.95 485.00,173.85 C485.00,174.33 482.30,174.97 479.00,175.27 C471.96,175.90 462.12,180.20 456.60,185.04 C454.51,186.88 451.45,190.77 449.81,193.69 C446.82,198.98 446.79,199.00 441.87,199.00 C438.81,199.00 436.78,198.53 436.53,197.75 ZM 194.50 312.60 C192.85,311.87 190.64,310.31 189.60,309.14 C187.64,306.95 184.88,298.12 185.70,296.72 C185.95,296.29 196.90,296.06 210.03,296.22 C223.16,296.37 233.58,296.80 233.20,297.17 C232.81,297.54 225.94,301.48 217.92,305.92 C202.83,314.29 200.10,315.07 194.50,312.60 ZM 324.20 160.70 C322.44,158.89 321.00,156.87 321.00,156.22 C321.00,154.90 332.03,149.00 334.49,149.00 C336.99,149.00 347.00,155.07 347.00,156.59 C347.00,157.35 345.58,159.34 343.85,160.99 C341.00,163.72 340.08,164.00 334.05,164.00 C327.83,164.00 327.18,163.78 324.20,160.70 ZM 457.64 331.82 C459.97,329.44 461.60,326.27 461.94,323.47 C461.84,324.82 461.40,326.26 460.60,327.80 C459.83,329.28 459.20,330.39 457.64,331.82 ZM 460.80 319.08 C459.87,317.83 458.33,316.48 455.94,314.83 C457.50,315.85 458.64,316.66 459.14,317.13 C459.82,317.76 460.37,318.41 460.80,319.08 Z" fill="rgb(113,137,236)"/>
<path d="M 322.77 466.00 C323.95,464.90 325.47,464.00 326.15,464.00 C326.84,464.00 329.14,462.79 331.28,461.30 C334.89,458.81 335.02,458.55 333.09,457.84 C331.94,457.41 331.00,456.63 331.00,456.10 C331.00,454.97 333.81,452.00 334.89,452.00 C336.14,452.00 342.49,445.95 342.57,444.68 C342.62,444.03 343.16,441.74 343.79,439.59 C344.41,437.45 344.69,435.31 344.40,434.84 C344.12,434.38 344.25,434.00 344.69,434.00 C345.14,434.00 346.80,432.88 348.38,431.52 C349.96,430.16 351.65,429.29 352.13,429.58 C353.72,430.56 353.03,429.11 351.02,427.24 C349.08,425.43 349.56,425.11 376.77,410.02 C392.02,401.56 413.95,389.25 425.50,382.66 C437.05,376.08 456.17,365.33 467.99,358.78 C492.95,344.95 494.86,343.62 499.53,336.69 C502.58,332.17 509.08,314.49 512.65,301.00 L 513.57 297.50 L 532.54 296.94 C553.07,296.33 556.18,295.66 565.11,289.93 C581.55,279.38 590.18,258.73 586.64,238.45 C583.07,218.02 568.27,202.35 549.20,198.80 C544.29,197.89 540.93,197.91 533.88,198.91 C528.92,199.61 524.74,200.03 524.61,199.84 C524.47,199.65 521.98,190.95 519.07,180.50 C507.13,137.67 503.39,127.48 497.12,120.65 C493.10,116.28 488.57,113.45 460.50,97.78 C438.95,85.74 420.05,75.09 393.00,59.72 C391.08,58.63 385.45,55.49 380.50,52.74 C375.55,50.00 367.45,45.38 362.50,42.48 C357.55,39.58 351.37,36.22 348.76,35.00 C346.15,33.78 344.24,32.43 344.51,31.99 C344.78,31.55 343.65,30.72 342.00,30.15 C339.52,29.29 339.00,28.55 339.00,25.96 C339.00,23.58 339.52,22.68 341.15,22.25 C342.91,21.79 343.05,21.49 341.90,20.59 C339.84,18.98 333.72,6.32 334.26,4.80 C334.52,4.09 334.32,2.71 333.83,1.75 C332.97,0.09 340.68,0.00 488.96,0.00 L 645.00 0.00 L 645.00 234.00 L 645.00 468.00 L 482.81 468.00 L 320.62 468.00 L 322.77 466.00 ZM 348.51 428.01 C348.16,427.44 348.56,427.28 349.45,427.62 C351.18,428.28 351.50,429.00 350.06,429.00 C349.54,429.00 348.84,428.56 348.51,428.01 ZM 411.80 353.64 C409.82,352.76 409.34,352.06 410.00,351.00 C410.49,350.21 411.19,346.62 411.55,343.03 C411.91,339.44 413.33,333.80 414.70,330.50 C416.08,327.20 417.61,321.82 418.11,318.53 C418.62,315.25 419.44,312.16 419.94,311.66 C420.44,311.16 420.62,310.18 420.35,309.47 C419.80,308.05 422.37,302.51 424.05,301.47 C427.46,299.36 430.96,300.42 443.41,307.33 C458.19,315.54 462.00,318.64 462.00,322.45 C462.00,325.76 459.91,329.87 456.85,332.57 C452.48,336.43 418.08,355.29 419.45,353.08 C419.85,352.44 419.50,352.26 418.56,352.62 C417.71,352.94 417.30,353.72 417.65,354.35 C418.04,355.05 417.76,355.01 416.95,354.25 C415.34,352.76 413.62,352.58 414.50,354.00 C415.23,355.17 415.27,355.18 411.80,353.64 ZM 460.50 311.45 C458.30,310.08 451.87,306.41 446.20,303.30 C438.06,298.82 436.25,297.44 437.55,296.71 C438.51,296.17 448.12,296.09 460.96,296.52 L 482.73 297.25 L 482.02 300.42 C480.80,305.81 478.65,309.33 475.10,311.71 C470.66,314.70 465.58,314.61 460.50,311.45 ZM 125.84 275.61 C112.17,270.72 104.99,260.96 105.01,247.28 C105.02,239.12 107.87,232.20 113.55,226.52 C119.53,220.54 125.02,218.50 135.00,218.55 C144.15,218.60 148.40,220.10 154.93,225.59 C157.78,227.99 163.97,237.32 163.99,239.25 C164.00,239.66 160.71,240.00 156.69,240.00 C149.82,240.00 149.20,239.81 146.44,236.91 C141.94,232.18 138.39,230.71 132.76,231.25 C124.82,232.01 119.15,237.50 118.27,245.27 C117.54,251.79 119.48,256.61 124.22,260.04 C131.55,265.36 139.79,264.96 145.48,259.02 C148.22,256.16 148.79,256.00 156.25,256.00 L 164.12 256.00 L 161.31 261.17 C154.67,273.38 138.29,280.05 125.84,275.61 ZM 220.32 275.14 C208.44,271.04 200.66,260.25 200.75,248.01 C200.85,235.81 206.52,226.35 216.76,221.32 C221.72,218.88 223.66,218.51 231.00,218.54 C240.71,218.58 244.82,220.22 251.41,226.67 C257.46,232.60 259.48,237.95 259.48,248.00 C259.48,258.19 257.74,262.17 250.22,269.20 C242.21,276.69 231.15,278.89 220.32,275.14 ZM 238.86 261.27 C240.31,260.19 242.55,257.78 243.84,255.91 C245.82,253.02 246.12,251.54 245.79,246.27 C245.47,241.02 244.94,239.55 242.45,236.93 C236.56,230.73 230.85,229.52 223.40,232.91 C217.18,235.73 214.50,240.17 214.50,247.68 C214.50,255.11 216.49,258.39 223.06,261.81 C228.32,264.56 234.72,264.34 238.86,261.27 ZM 286.99 276.13 C279.93,273.81 274.85,269.54 271.36,263.00 C269.76,259.99 269.46,256.69 269.18,239.25 L 268.85 219.00 L 275.93 219.00 L 283.00 219.00 L 283.00 237.05 C283.00,258.22 283.49,259.88 290.51,262.56 C294.33,264.01 295.70,264.11 298.98,263.12 C306.47,260.88 307.00,259.25 307.00,238.38 L 307.00 220.04 L 309.32 219.46 C310.59,219.14 313.85,219.02 316.55,219.19 L 321.47 219.50 L 321.49 238.00 C321.50,258.83 320.85,261.94 315.20,268.20 C310.05,273.90 304.82,276.26 296.50,276.63 C292.65,276.81 288.37,276.58 286.99,276.13 ZM 347.78 275.06 C335.89,270.41 329.50,260.94 329.51,248.00 C329.52,235.64 335.35,225.97 345.95,220.74 C351.79,217.87 365.64,217.62 370.70,220.30 C372.46,221.24 374.15,222.00 374.45,222.00 C374.75,222.00 375.00,215.93 375.00,208.50 L 375.00 195.00 L 382.00 195.00 L 389.00 195.00 L 389.00 235.50 L 389.00 276.00 L 382.00 276.00 C375.09,276.00 375.00,275.97 375.00,273.35 C375.00,270.78 374.93,270.75 373.07,272.44 C368.00,277.03 355.99,278.27 347.78,275.06 ZM 367.02 261.75 C372.71,258.87 375.44,254.24 375.40,247.54 C375.37,241.50 373.19,236.98 368.77,233.83 C364.30,230.64 354.48,230.51 350.32,233.59 C342.86,239.12 340.61,249.11 345.26,256.10 C347.87,260.03 355.03,264.00 359.50,264.00 C361.19,264.00 364.57,262.99 367.02,261.75 ZM 475.56 275.57 C458.48,269.22 452.93,248.07 465.15,235.85 C466.96,234.04 467.01,233.67 465.64,232.15 C464.80,231.22 463.20,228.45 462.08,225.98 C456.95,214.69 462.07,202.10 474.00,196.65 C480.41,193.73 491.95,193.79 497.69,196.79 C504.84,200.52 509.87,209.04 509.95,217.50 C509.98,221.56 506.19,231.15 504.02,232.49 C503.19,233.00 503.75,234.19 505.86,236.36 C509.98,240.62 512.00,245.87 512.00,252.35 C512.00,261.55 507.71,268.74 499.26,273.69 C493.65,276.98 481.87,277.91 475.56,275.57 ZM 491.32 262.39 C498.76,258.84 500.17,249.22 494.05,243.75 C491.46,241.44 490.06,241.00 485.37,241.00 C480.16,241.00 479.48,241.28 475.75,245.01 C472.07,248.69 471.79,249.36 472.29,253.09 C473.46,261.84 482.85,266.42 491.32,262.39 ZM 492.60 224.60 C495.24,221.96 496.00,220.37 496.00,217.50 C496.00,212.29 490.73,207.00 485.55,207.00 C473.99,207.00 468.96,220.34 478.35,226.07 C483.42,229.16 488.57,228.63 492.60,224.60 ZM 534.99 276.07 C528.14,273.98 522.04,268.93 520.06,263.68 C518.07,258.40 518.44,258.00 525.46,258.00 C530.81,258.00 532.11,258.33 532.95,259.91 C534.41,262.63 542.22,265.41 546.17,264.62 C549.73,263.90 553.00,261.39 553.00,259.37 C553.00,257.24 549.08,255.34 540.04,253.09 C526.04,249.61 521.00,244.74 521.00,234.68 C521.00,226.23 528.29,219.69 539.14,218.41 C552.20,216.88 565.00,225.08 565.00,234.97 C565.00,236.77 564.36,237.00 559.49,237.00 C554.53,237.00 553.68,236.67 551.07,233.75 C548.44,230.81 547.63,230.50 542.50,230.50 C538.05,230.50 536.54,230.92 535.42,232.44 C534.64,233.51 534.00,234.75 534.00,235.19 C534.00,237.30 538.33,239.86 544.60,241.47 C555.50,244.26 559.98,246.13 563.01,249.16 C570.69,256.85 565.31,271.16 553.11,275.46 C548.56,277.07 539.30,277.38 534.99,276.07 ZM 181.02 273.75 C172.35,269.32 172.54,270.19 172.18,233.68 C172.01,215.99 172.14,200.04 172.48,198.25 L 173.09 195.00 L 179.55 195.00 L 186.00 195.00 L 186.00 228.39 C186.00,264.37 185.80,263.00 191.08,263.00 C192.78,263.00 193.00,263.76 193.00,269.50 L 193.00 276.00 L 189.21 276.00 C187.13,276.00 183.44,274.99 181.02,273.75 ZM 401.00 235.50 L 401.00 195.00 L 408.00 195.00 L 415.00 195.00 L 415.00 216.73 L 415.00 238.46 L 424.81 228.69 L 434.62 218.92 L 443.33 219.21 L 452.05 219.50 L 439.37 232.83 L 426.68 246.16 L 441.58 261.08 L 456.48 276.00 L 446.93 276.00 L 437.38 276.00 L 426.55 265.00 C420.58,258.95 415.55,254.00 415.35,254.00 C415.16,254.00 415.00,258.95 415.00,265.00 L 415.00 276.00 L 408.00 276.00 L 401.00 276.00 L 401.00 235.50 Z" fill="rgb(239,173,229)"/>
</g>
</svg>