<svg version="1.1" id="Layer_1" xmlns="http://www.w3.org/2000/svg" xmlns:xlink="http://www.w3.org/1999/xlink" x="0px" y="0px"
	 width="100%" viewBox="0 0 640 464" enable-background="new 0 0 640 464" xml:space="preserve">
<path fill="#000000" opacity="1.000000" stroke="none" 
	d="
M314.981995,38.890591 
	C329.724274,30.233784 343.566589,31.753458 357.801270,39.899490 
	C399.866364,63.971912 442.012909,87.914223 484.491608,111.244614 
	C497.662445,118.478378 505.252441,128.843353 509.205475,142.795837 
	C514.328674,160.878510 519.785522,178.866577 524.918274,196.946625 
	C525.800537,200.054581 526.919861,200.805649 530.159180,200.057770 
	C571.268005,190.566681 597.396667,230.424774 586.464600,264.366577 
	C579.079407,287.296326 559.688782,300.089630 535.568481,298.564117 
	C530.918701,298.270050 526.216431,298.677704 521.585266,298.251984 
	C516.656128,297.798798 514.401428,299.783966 513.186829,304.494659 
	C511.029480,312.861969 508.585022,321.171906 505.330780,329.210144 
	C501.499664,338.673248 495.215332,345.664520 486.139008,350.680237 
	C442.990509,374.524811 399.912292,398.500092 356.998047,422.763092 
	C342.164734,431.149567 328.222473,431.579132 313.174042,422.961334 
	C269.380127,397.881805 225.255768,373.379364 181.266342,348.641083 
	C173.832397,344.460480 168.698563,338.159180 165.771072,330.309113 
	C162.458557,321.426666 159.575775,312.372040 156.844437,303.290527 
	C155.733932,299.598175 153.853210,298.168945 150.052765,298.344238 
	C144.739746,298.589264 139.391586,298.156494 134.086609,298.478027 
	C107.658257,300.079712 81.404739,274.900085 85.286484,241.887665 
	C87.746468,220.966660 103.731354,199.564941 133.686554,197.968781 
	C134.351074,197.933380 135.019974,197.932693 135.684952,197.960663 
	C144.703751,198.340042 144.757706,198.358337 147.338440,189.824432 
	C152.491928,172.782822 157.645416,155.740707 162.673111,138.661758 
	C166.349243,126.174026 173.869934,117.333595 185.423447,110.997986 
	C223.246887,90.256737 260.780426,68.986923 298.434967,47.937374 
	C303.813843,44.930489 309.245392,42.017799 314.981995,38.890591 
M312.005646,339.558044 
	C290.348663,327.481110 268.654724,315.469574 247.068680,303.267151 
	C243.164429,301.060089 239.815186,300.829254 235.896927,303.116821 
	C228.569550,307.394653 220.972672,311.210205 213.636765,315.474213 
	C205.796539,320.031311 205.350464,327.602142 212.425781,333.332428 
	C213.839218,334.477173 215.440140,335.415253 217.031891,336.311310 
	C245.890152,352.556976 274.746155,368.806763 303.641785,384.985748 
	C308.421356,387.661865 313.080170,390.667847 318.451202,392.112030 
	C325.795593,394.086853 332.386963,389.644257 332.573822,382.279022 
	C332.797546,373.461853 332.557098,364.633484 332.569031,355.810059 
	C332.574066,352.097473 331.026367,349.625946 327.596832,347.952393 
	C322.516632,345.473358 317.620941,342.616180 312.005646,339.558044 
M274.577118,94.137955 
	C255.919113,104.444481 237.261719,114.752136 218.602478,125.056427 
	C215.527115,126.754753 212.507355,128.539734 210.362869,131.420654 
	C206.624207,136.443222 207.493469,142.338257 212.784729,145.628922 
	C221.128342,150.817871 229.667053,155.683029 238.464996,160.085358 
	C240.621063,161.164230 242.379791,161.131653 244.529495,159.946487 
	C272.240692,144.668701 299.986755,129.453934 327.764648,114.297745 
	C330.540253,112.783310 331.866211,110.741478 332.167969,107.623177 
	C333.085663,98.139870 332.686768,88.643227 332.447632,79.164467 
	C332.326141,74.351006 328.693298,71.210968 323.696930,70.313942 
	C319.661041,69.589363 316.157227,70.957024 312.746277,72.857140 
	C300.234314,79.827110 287.715668,86.785179 274.577118,94.137955 
M425.599304,110.933411 
	C410.636993,102.533661 395.679901,94.124527 380.710297,85.737831 
	C372.281372,81.015556 363.960846,76.076538 355.356384,71.697105 
	C346.073822,66.972534 338.085236,72.046890 338.088654,82.288422 
	C338.091370,90.453941 338.225891,98.620857 338.105682,106.784271 
	C338.055359,110.201126 339.413757,112.411781 342.341614,114.030609 
	C370.040619,129.345474 397.725220,144.686478 425.375061,160.089798 
	C427.692200,161.380646 429.640717,161.355881 431.897369,160.067047 
	C439.419373,155.771042 447.057373,151.677017 454.554688,147.339233 
	C464.656036,141.494766 464.709320,132.950363 454.611328,127.112206 
	C445.238647,121.693413 435.705414,116.552368 425.599304,110.933411 
M425.369354,351.807495 
	C435.115112,346.388000 444.852386,340.953247 454.610321,335.555786 
	C459.180939,333.027679 462.097534,329.114380 462.319794,324.033997 
	C462.537964,319.046143 458.453064,316.667084 454.580963,314.516541 
	C447.451935,310.557068 440.305969,306.626892 433.222260,302.587677 
	C430.493683,301.031799 427.982483,301.016113 425.226654,302.541382 
	C397.563263,317.851776 369.884033,333.133698 342.173340,348.358246 
	C339.188324,349.998260 337.944794,352.254150 337.997284,355.614441 
	C338.129822,364.102295 338.078339,372.592896 338.121216,381.082275 
	C338.161774,389.114197 341.906006,392.500488 349.955658,391.911377 
	C353.038849,391.685699 355.760254,390.469910 358.385254,389.014496 
	C380.508453,376.748444 402.615967,364.454163 425.369354,351.807495 
M487.298279,277.641968 
	C488.775940,277.423096 490.249939,277.175201 491.731781,276.989807 
	C508.807526,274.853424 520.951965,252.184784 505.665283,237.186951 
	C503.682373,235.241577 504.010895,233.728256 505.389099,231.572540 
	C515.968628,215.024597 507.048706,196.800903 487.467316,195.592987 
	C477.977570,195.007614 469.687134,198.562714 464.581848,207.117188 
	C459.535492,215.572891 460.142395,224.006958 466.289673,231.745422 
	C468.319885,234.301178 468.061035,235.940353 465.726166,237.979263 
	C463.571442,239.860886 462.325897,242.463501 461.349518,245.156677 
	C455.498749,261.294861 467.609894,276.992157 487.298279,277.641968 
M338.137207,228.644867 
	C328.812256,240.020798 327.174561,253.785950 335.545898,265.111053 
	C346.357788,279.737976 360.480164,281.249237 375.821228,271.884216 
	C377.510834,276.626617 380.609406,277.781464 386.825684,276.568542 
	C390.981079,275.757782 389.534088,272.475281 389.526672,270.142334 
	C389.458435,248.652786 389.239441,227.163727 389.057587,205.674576 
	C389.040680,203.676422 389.022247,201.676407 388.921722,199.681427 
	C388.838745,198.035919 388.086365,196.962173 386.351196,196.466705 
	C379.370544,194.473511 376.381439,196.589050 376.371735,203.664307 
	C376.364685,208.829834 376.424133,213.996353 376.332306,219.160278 
	C376.304871,220.703232 377.072601,222.490784 375.191406,224.011978 
	C362.167633,216.988831 349.797729,217.560028 338.137207,228.644867 
M434.723145,254.760788 
	C433.268219,253.389923 431.937408,251.848114 430.332886,250.683289 
	C426.837891,248.145950 427.208923,245.849762 430.139404,243.081589 
	C434.132660,239.309525 438.002563,235.391296 441.716248,231.343903 
	C444.551483,228.253830 447.797546,225.446854 450.300262,221.004150 
	C442.656616,220.805939 435.546570,218.367508 430.129425,225.653244 
	C427.169952,229.633530 423.364258,232.990753 419.882385,236.572769 
	C418.806366,237.679749 418.120148,239.537781 415.873840,239.036545 
	C415.028961,236.980759 415.338837,234.821411 415.353210,232.694138 
	C415.420715,222.706039 415.596069,212.717270 415.525513,202.730194 
	C415.484924,196.983856 414.484497,196.476089 408.626221,196.304062 
	C403.684235,196.158936 402.812805,198.772263 402.854370,202.874054 
	C402.977661,215.034744 402.999115,227.197647 402.922546,239.358810 
	C402.854431,250.182358 402.582947,261.004517 402.450836,271.827911 
	C402.429138,273.605927 402.147064,275.561798 404.426239,276.464264 
	C410.536255,278.883575 414.873016,275.973938 415.034149,269.472198 
	C415.158600,264.449371 414.387390,259.341095 415.582489,254.341492 
	C421.355042,259.784546 427.452454,264.341980 432.007477,270.116180 
	C438.389282,278.206055 446.518219,276.097992 454.383514,276.497406 
	C454.641083,276.083130 454.898621,275.668854 455.156189,275.254578 
	C448.517395,268.588806 441.878632,261.923065 434.723145,254.760788 
M202.326416,183.569107 
	C202.756668,191.069092 201.370773,198.693359 203.476547,206.911530 
	C212.195587,202.321182 220.651245,199.048248 229.803589,197.832855 
	C232.182739,197.516922 232.366760,195.136688 232.677628,193.109497 
	C233.734558,186.217499 234.449097,179.234711 236.105850,172.485779 
	C237.303909,167.605286 235.757080,165.016602 231.679459,162.800415 
	C223.493820,158.351471 215.385529,153.749954 207.374435,148.993896 
	C202.571381,146.142410 198.195541,146.814682 193.847656,149.722366 
	C188.063461,153.590576 187.110565,159.796616 186.439835,165.931458 
	C185.478714,174.722366 185.645996,174.740768 194.603592,174.830261 
	C202.266525,174.906845 202.266525,174.906830 202.326416,183.569107 
M213.106155,225.606522 
	C205.694305,231.223175 202.311310,238.825378 201.823547,247.979034 
	C200.985199,263.712799 214.482681,277.685730 231.163818,277.480743 
	C248.143661,277.272095 260.563873,264.054749 260.418396,248.252136 
	C260.312378,236.738541 254.967606,227.648376 244.345337,222.583725 
	C233.784637,217.548416 223.389343,218.227371 213.106155,225.606522 
M106.524605,242.295303 
	C102.108261,268.733978 126.759201,283.754303 147.666855,274.677734 
	C155.148178,271.429871 160.585907,266.001801 163.305206,257.786987 
	C153.773956,256.366882 152.394836,256.699432 145.150162,261.816772 
	C137.632034,267.127258 127.764603,266.070892 122.128410,259.352173 
	C116.431084,252.560577 117.087685,241.713074 123.553978,235.801025 
	C130.003204,229.904572 140.499512,229.702606 146.511261,236.543335 
	C151.731155,242.483047 157.289841,240.253006 163.251358,240.077423 
	C160.813736,228.700378 148.962967,219.857544 136.292191,219.391159 
	C122.339790,218.877625 110.864006,227.467697 106.524605,242.295303 
M533.033081,275.613098 
	C542.776184,279.033875 552.197632,278.441986 560.476257,272.074768 
	C570.639038,264.258484 568.645996,251.170090 556.790344,246.493088 
	C553.257263,245.099304 549.463013,244.375473 545.806580,243.283707 
	C543.265686,242.524994 540.692017,241.815735 538.250671,240.801270 
	C535.931091,239.837402 534.466431,238.018738 534.847168,235.311127 
	C535.231567,232.577789 537.292664,231.279678 539.679871,230.958359 
	C544.940369,230.250290 550.000122,230.449661 553.494141,235.500137 
	C554.918274,237.558685 563.004028,238.767761 564.431946,237.007385 
	C566.677795,234.238739 564.214050,231.785416 563.190613,229.309067 
	C562.945312,228.715454 562.423950,228.227753 561.997131,227.718491 
	C554.778015,219.105179 539.418762,216.813812 530.059998,222.948792 
	C519.107666,230.128433 519.459106,243.672226 530.757080,250.201202 
	C533.823120,251.973007 537.150696,252.972534 540.593689,253.646851 
	C544.022278,254.318329 547.435730,255.016342 550.630066,256.522919 
	C552.364929,257.341156 553.960510,258.347046 553.999207,260.442230 
	C554.036621,262.469910 552.607117,263.760773 551.007629,264.752197 
	C546.646729,267.455170 537.889526,266.856689 534.767700,262.746155 
	C532.008423,259.113007 528.748901,259.421783 525.125549,259.264893 
	C520.520996,259.065521 520.157227,261.094330 521.582642,264.775208 
	C523.592651,269.965576 527.530457,273.048920 533.033081,275.613098 
M283.805847,257.173248 
	C282.053680,246.757217 283.151733,236.257507 282.979156,225.798904 
	C282.908417,221.512207 280.625580,220.804581 277.218872,221.017731 
	C274.023956,221.217621 270.218048,220.271744 270.298645,225.656219 
	C270.443085,235.303696 270.041595,244.967758 270.442322,254.600998 
	C271.006866,268.173279 282.371704,278.098938 296.205902,277.645721 
	C310.566986,277.175262 321.540314,266.849335 321.710205,253.469543 
	C321.824249,244.486984 321.526733,235.496536 321.771545,226.519394 
	C321.899017,221.845688 319.634979,220.890030 315.651703,221.007111 
	C311.923035,221.116684 308.710266,220.986740 308.857605,226.350189 
	C309.099518,235.156921 309.104919,243.991745 308.674438,252.788513 
	C308.330688,259.813721 304.731506,263.894348 299.042511,265.068634 
	C292.924133,266.331573 287.481812,263.747864 283.805847,257.173248 
M446.634491,198.636749 
	C448.657104,198.023376 449.238953,196.137589 450.050110,194.558762 
	C453.214050,188.400650 458.126831,184.085953 464.084656,180.789139 
	C469.250427,177.930588 474.779938,176.255478 480.607544,175.461716 
	C483.124908,175.118851 485.329620,174.301773 484.667114,171.095047 
	C483.627106,166.060791 482.969635,160.858871 481.187897,156.087280 
	C478.530884,148.971786 470.392731,145.195602 464.612457,148.286148 
	C455.079224,153.383240 445.821564,158.995651 436.445374,164.386703 
	C433.988586,165.799286 433.283478,167.533875 433.926971,170.569595 
	C435.371246,177.383255 436.401367,184.306381 437.189301,191.231674 
	C438.069244,198.965652 437.871368,198.988159 446.634491,198.636749 
M175.495178,268.798309 
	C178.609055,274.315125 183.748413,276.201538 189.660019,276.630341 
	C191.604004,276.771362 193.764801,276.450287 193.533707,273.974121 
	C193.234695,270.770355 195.712006,265.564972 191.629593,264.775055 
	C185.490036,263.587158 185.891006,260.053253 185.898972,255.786148 
	C185.932785,237.662155 185.825394,219.537643 185.927734,201.414215 
	C185.950058,197.461380 184.345657,195.998260 180.544128,196.323166 
	C177.540176,196.579910 173.957077,195.393494 173.934082,200.574661 
	C173.845627,220.507370 173.578003,240.439224 173.452209,260.371887 
	C173.435440,263.031281 174.140259,265.627472 175.495178,268.798309 
M188.060104,303.512451 
	C190.849869,313.455078 199.678116,317.231812 208.441895,312.276428 
	C214.218735,309.010040 220.070999,305.875885 225.818115,302.558838 
	C227.542099,301.563812 229.585770,300.769104 230.979568,298.157898 
	C216.090729,298.157898 201.899155,298.157898 187.794144,298.157898 
	C187.073318,299.886139 187.426895,301.331818 188.060104,303.512451 
M476.285645,298.083771 
	C464.063477,298.339386 451.814514,297.386078 439.256073,298.391510 
	C440.551361,300.867310 442.594696,301.393555 444.260345,302.343445 
	C449.903992,305.561737 455.666870,308.572479 461.286377,311.831207 
	C469.943756,316.851624 477.914276,314.089203 481.631104,304.643036 
	C483.702759,299.378021 483.053680,298.414032 476.285645,298.083771 
M329.418701,156.459137 
	C331.847931,156.469559 332.815125,158.467957 333.844635,160.054398 
	C336.486603,164.125671 340.061005,163.381241 343.499207,161.916046 
	C346.505219,160.635010 346.960480,156.941895 344.444000,155.003098 
	C342.093231,153.191986 339.410614,151.681992 336.419434,151.220322 
	C332.546539,150.622574 328.674957,153.447205 329.418701,156.459137 
z"/>
<path fill="#000000" opacity="1.000000" stroke="none" 
	d="
M357.416290,351.170410 
	C360.487152,349.478333 363.071655,349.741150 364.347809,352.731323 
	C365.665100,355.817780 363.177246,357.685120 361.014801,359.134735 
	C358.598877,360.754242 355.819366,361.552368 353.281677,359.259949 
	C351.960083,358.066101 352.223907,356.525818 353.316467,355.271667 
	C354.503632,353.908966 355.844452,352.680084 357.416290,351.170410 
z"/>
<path fill="#000000" opacity="1.000000" stroke="none" 
	d="
M403.581879,331.650330 
	C406.070129,331.515503 407.159943,332.481628 406.069183,334.586853 
	C405.371521,335.933441 403.763214,336.165649 402.612091,335.270233 
	C400.857483,333.905426 401.924683,332.721405 403.581879,331.650330 
z"/>
<path fill="#000000" opacity="1.000000" stroke="none" 
	d="
M472.733704,250.813538 
	C476.526123,242.100845 484.198456,238.983337 492.357117,242.465607 
	C496.768005,244.348236 499.039612,247.685318 499.351227,252.436081 
	C499.665100,257.221283 497.695343,260.854034 493.613007,263.201782 
	C488.650391,266.055786 483.493439,266.273529 478.475922,263.342224 
	C473.857574,260.644073 471.852997,256.550781 472.733704,250.813538 
z"/>
<path fill="#000000" opacity="1.000000" stroke="none" 
	d="
M492.981964,227.222626 
	C487.581238,230.211395 482.495972,230.611221 477.775024,226.906906 
	C474.214874,224.113434 472.928192,220.268402 474.109436,215.792145 
	C475.333893,211.152161 479.644745,207.629944 484.684998,207.396118 
	C489.675690,207.164551 493.834076,208.848953 496.273560,213.526718 
	C498.581696,217.952667 497.570374,222.394806 492.981964,227.222626 
z"/>
<path fill="#000000" opacity="1.000000" stroke="none" 
	d="
M344.684784,255.944214 
	C341.610901,248.425156 342.496582,241.771347 347.944885,236.258652 
	C352.779053,231.367340 358.872864,230.115372 365.429138,232.255005 
	C372.759247,234.647186 377.406097,241.473175 377.145630,249.045639 
	C376.883392,256.669159 371.885529,262.768616 364.221924,264.817902 
	C356.581299,266.861053 349.359192,263.689423 344.684784,255.944214 
z"/>
<path fill="#000000" opacity="1.000000" stroke="none" 
	d="
M245.907288,240.420929 
	C249.311737,248.065063 248.233810,254.746063 242.854584,260.557373 
	C238.531326,265.227875 231.001404,266.581329 224.878616,264.153015 
	C218.133286,261.477783 213.944763,255.306488 214.121353,248.303482 
	C214.300690,241.191605 218.572037,235.041077 225.102600,232.491119 
	C231.304031,230.069672 239.163696,232.054428 243.715179,237.242386 
	C244.475204,238.108688 245.060318,239.128448 245.907288,240.420929 
z"/>
</svg>