<?xml version="1.0" encoding="UTF-8"?>
<svg xmlns="http://www.w3.org/2000/svg" xmlns:xlink="http://www.w3.org/1999/xlink" width="40px" height="29px" viewBox="0 0 40 29" version="1.1">
<g id="surface1">
<path style=" stroke:none;fill-rule:nonzero;fill:rgb(0%,0%,0%);fill-opacity:1;" d="M 19.6875 2.429688 C 20.609375 1.890625 21.472656 1.984375 22.363281 2.492188 C 24.992188 4 27.625 5.496094 30.28125 6.953125 C 31.105469 7.40625 31.578125 8.050781 31.824219 8.925781 C 32.144531 10.054688 32.488281 11.179688 32.808594 12.308594 C 32.863281 12.503906 32.933594 12.550781 33.136719 12.503906 C 35.703125 11.910156 37.335938 14.402344 36.652344 16.523438 C 36.191406 17.957031 34.980469 18.753906 33.472656 18.660156 C 33.183594 18.640625 32.886719 18.667969 32.597656 18.640625 C 32.289062 18.613281 32.148438 18.738281 32.074219 19.03125 C 31.9375 19.554688 31.785156 20.074219 31.582031 20.574219 C 31.34375 21.167969 30.949219 21.605469 30.382812 21.917969 C 27.6875 23.40625 24.996094 24.90625 22.3125 26.421875 C 21.386719 26.945312 20.515625 26.972656 19.574219 26.433594 C 16.835938 24.867188 14.078125 23.335938 11.328125 21.789062 C 10.863281 21.527344 10.542969 21.136719 10.359375 20.644531 C 10.152344 20.089844 9.972656 19.523438 9.804688 18.957031 C 9.734375 18.726562 9.617188 18.636719 9.378906 18.648438 C 9.046875 18.660156 8.710938 18.636719 8.378906 18.65625 C 6.730469 18.753906 5.085938 17.179688 5.332031 15.117188 C 5.484375 13.808594 6.484375 12.472656 8.355469 12.375 C 8.398438 12.371094 8.4375 12.371094 8.480469 12.371094 C 9.042969 12.394531 9.046875 12.398438 9.207031 11.863281 C 9.53125 10.800781 9.851562 9.734375 10.167969 8.667969 C 10.398438 7.886719 10.867188 7.332031 11.589844 6.9375 C 13.953125 5.640625 16.296875 4.3125 18.652344 2.996094 C 18.988281 2.808594 19.328125 2.625 19.6875 2.429688 M 19.5 21.222656 C 18.148438 20.46875 16.789062 19.71875 15.441406 18.953125 C 15.199219 18.816406 14.988281 18.800781 14.742188 18.945312 C 14.285156 19.210938 13.8125 19.449219 13.351562 19.71875 C 12.863281 20.003906 12.835938 20.476562 13.277344 20.832031 C 13.363281 20.90625 13.464844 20.964844 13.566406 21.019531 C 15.367188 22.035156 17.171875 23.050781 18.976562 24.0625 C 19.277344 24.230469 19.566406 24.417969 19.902344 24.507812 C 20.363281 24.628906 20.773438 24.351562 20.785156 23.890625 C 20.800781 23.339844 20.785156 22.789062 20.785156 22.238281 C 20.785156 22.007812 20.6875 21.851562 20.476562 21.746094 C 20.15625 21.59375 19.851562 21.414062 19.5 21.222656 M 17.160156 5.882812 C 15.996094 6.527344 14.828125 7.171875 13.664062 7.816406 C 13.46875 7.921875 13.28125 8.035156 13.148438 8.214844 C 12.914062 8.527344 12.96875 8.894531 13.300781 9.101562 C 13.820312 9.425781 14.355469 9.730469 14.902344 10.003906 C 15.039062 10.074219 15.148438 10.070312 15.28125 9.996094 C 17.015625 9.042969 18.75 8.089844 20.484375 7.144531 C 20.660156 7.050781 20.742188 6.921875 20.761719 6.726562 C 20.816406 6.132812 20.792969 5.539062 20.777344 4.949219 C 20.769531 4.648438 20.542969 4.449219 20.230469 4.394531 C 19.980469 4.347656 19.761719 4.433594 19.546875 4.554688 C 18.765625 4.988281 17.980469 5.425781 17.160156 5.882812 M 26.601562 6.933594 C 25.664062 6.410156 24.730469 5.882812 23.792969 5.359375 C 23.269531 5.0625 22.746094 4.753906 22.210938 4.480469 C 21.628906 4.1875 21.128906 4.503906 21.128906 5.144531 C 21.128906 5.652344 21.140625 6.164062 21.132812 6.675781 C 21.128906 6.886719 21.214844 7.027344 21.394531 7.125 C 23.128906 8.085938 24.859375 9.042969 26.585938 10.003906 C 26.730469 10.085938 26.851562 10.085938 26.992188 10.003906 C 27.464844 9.734375 27.941406 9.480469 28.410156 9.207031 C 29.039062 8.84375 29.042969 8.308594 28.414062 7.945312 C 27.828125 7.605469 27.230469 7.285156 26.601562 6.933594 M 26.585938 21.988281 C 27.195312 21.648438 27.804688 21.308594 28.414062 20.972656 C 28.699219 20.8125 28.882812 20.570312 28.894531 20.253906 C 28.910156 19.941406 28.652344 19.792969 28.410156 19.65625 C 27.964844 19.410156 27.519531 19.164062 27.078125 18.910156 C 26.90625 18.816406 26.75 18.8125 26.578125 18.910156 C 24.847656 19.867188 23.117188 20.820312 21.386719 21.773438 C 21.199219 21.875 21.121094 22.015625 21.125 22.226562 C 21.132812 22.757812 21.128906 23.285156 21.132812 23.816406 C 21.136719 24.320312 21.367188 24.53125 21.871094 24.496094 C 22.066406 24.480469 22.234375 24.40625 22.398438 24.3125 C 23.78125 23.546875 25.164062 22.777344 26.585938 21.988281 M 30.457031 17.351562 C 30.546875 17.339844 30.640625 17.324219 30.734375 17.3125 C 31.800781 17.179688 32.558594 15.761719 31.605469 14.824219 C 31.480469 14.703125 31.5 14.609375 31.585938 14.472656 C 32.246094 13.4375 31.691406 12.300781 30.464844 12.222656 C 29.875 12.1875 29.355469 12.410156 29.035156 12.945312 C 28.722656 13.472656 28.757812 14 29.144531 14.484375 C 29.269531 14.644531 29.253906 14.746094 29.109375 14.875 C 28.972656 14.992188 28.894531 15.152344 28.835938 15.324219 C 28.46875 16.332031 29.226562 17.3125 30.457031 17.351562 M 21.132812 14.289062 C 20.550781 15 20.449219 15.863281 20.972656 16.570312 C 21.648438 17.484375 22.53125 17.578125 23.488281 16.992188 C 23.59375 17.289062 23.789062 17.363281 24.175781 17.285156 C 24.4375 17.234375 24.347656 17.03125 24.34375 16.882812 C 24.339844 15.539062 24.328125 14.199219 24.316406 12.855469 C 24.316406 12.730469 24.3125 12.605469 24.308594 12.480469 C 24.300781 12.378906 24.253906 12.308594 24.148438 12.277344 C 23.710938 12.15625 23.523438 12.285156 23.523438 12.730469 C 23.523438 13.050781 23.527344 13.375 23.519531 13.699219 C 23.519531 13.792969 23.566406 13.90625 23.449219 14 C 22.636719 13.5625 21.863281 13.597656 21.132812 14.289062 M 27.171875 15.921875 C 27.078125 15.835938 26.996094 15.742188 26.894531 15.667969 C 26.675781 15.507812 26.699219 15.367188 26.882812 15.191406 C 27.132812 14.957031 27.375 14.710938 27.605469 14.460938 C 27.785156 14.265625 27.988281 14.089844 28.144531 13.8125 C 27.667969 13.800781 27.222656 13.648438 26.882812 14.101562 C 26.699219 14.351562 26.460938 14.5625 26.242188 14.785156 C 26.175781 14.855469 26.132812 14.972656 25.992188 14.941406 C 25.9375 14.8125 25.957031 14.675781 25.960938 14.542969 C 25.964844 13.917969 25.976562 13.292969 25.96875 12.671875 C 25.96875 12.3125 25.90625 12.28125 25.539062 12.269531 C 25.230469 12.261719 25.175781 12.421875 25.179688 12.679688 C 25.1875 13.441406 25.1875 14.199219 25.183594 14.960938 C 25.179688 15.636719 25.160156 16.3125 25.152344 16.988281 C 25.152344 17.101562 25.132812 17.222656 25.277344 17.277344 C 25.660156 17.429688 25.929688 17.25 25.941406 16.84375 C 25.949219 16.527344 25.898438 16.207031 25.972656 15.894531 C 26.335938 16.238281 26.714844 16.519531 27 16.882812 C 27.398438 17.386719 27.90625 17.257812 28.398438 17.28125 C 28.414062 17.253906 28.429688 17.230469 28.445312 17.203125 C 28.03125 16.785156 27.617188 16.371094 27.171875 15.921875 M 12.644531 11.472656 C 12.671875 11.941406 12.585938 12.417969 12.71875 12.933594 C 13.261719 12.644531 13.789062 12.441406 14.363281 12.363281 C 14.511719 12.34375 14.523438 12.195312 14.542969 12.070312 C 14.609375 11.636719 14.652344 11.203125 14.757812 10.78125 C 14.832031 10.476562 14.734375 10.3125 14.480469 10.175781 C 13.96875 9.898438 13.460938 9.609375 12.960938 9.3125 C 12.660156 9.132812 12.386719 9.175781 12.117188 9.359375 C 11.753906 9.597656 11.695312 9.988281 11.652344 10.371094 C 11.59375 10.921875 11.601562 10.921875 12.164062 10.925781 C 12.640625 10.933594 12.640625 10.933594 12.644531 11.472656 M 13.320312 14.101562 C 12.855469 14.453125 12.644531 14.925781 12.613281 15.5 C 12.5625 16.480469 13.40625 17.355469 14.449219 17.34375 C 15.507812 17.328125 16.285156 16.503906 16.277344 15.515625 C 16.269531 14.796875 15.933594 14.226562 15.273438 13.910156 C 14.613281 13.597656 13.960938 13.640625 13.320312 14.101562 M 6.65625 15.144531 C 6.382812 16.796875 7.921875 17.734375 9.230469 17.167969 C 9.695312 16.964844 10.035156 16.625 10.207031 16.113281 C 9.609375 16.023438 9.523438 16.042969 9.070312 16.363281 C 8.601562 16.695312 7.984375 16.628906 7.632812 16.210938 C 7.277344 15.785156 7.316406 15.105469 7.722656 14.738281 C 8.125 14.367188 8.78125 14.355469 9.15625 14.785156 C 9.484375 15.15625 9.832031 15.015625 10.203125 15.003906 C 10.050781 14.292969 9.308594 13.742188 8.519531 13.710938 C 7.644531 13.679688 6.929688 14.214844 6.65625 15.144531 M 33.316406 17.226562 C 33.921875 17.441406 34.511719 17.402344 35.03125 17.003906 C 35.664062 16.515625 35.539062 15.699219 34.800781 15.40625 C 34.578125 15.320312 34.339844 15.273438 34.113281 15.207031 C 33.953125 15.15625 33.792969 15.113281 33.640625 15.050781 C 33.496094 14.988281 33.402344 14.875 33.429688 14.707031 C 33.453125 14.535156 33.582031 14.453125 33.730469 14.433594 C 34.058594 14.390625 34.375 14.402344 34.59375 14.71875 C 34.683594 14.847656 35.1875 14.921875 35.277344 14.8125 C 35.417969 14.640625 35.261719 14.488281 35.199219 14.332031 C 35.183594 14.292969 35.152344 14.265625 35.125 14.230469 C 34.671875 13.695312 33.714844 13.550781 33.128906 13.933594 C 32.445312 14.382812 32.464844 15.230469 33.171875 15.636719 C 33.363281 15.75 33.570312 15.8125 33.785156 15.851562 C 34 15.894531 34.214844 15.9375 34.414062 16.03125 C 34.523438 16.082031 34.621094 16.148438 34.625 16.277344 C 34.628906 16.40625 34.539062 16.484375 34.4375 16.546875 C 34.164062 16.714844 33.617188 16.679688 33.421875 16.421875 C 33.25 16.195312 33.046875 16.214844 32.820312 16.203125 C 32.53125 16.191406 32.511719 16.320312 32.597656 16.546875 C 32.722656 16.871094 32.96875 17.066406 33.316406 17.226562 M 17.738281 16.074219 C 17.628906 15.421875 17.695312 14.765625 17.6875 14.113281 C 17.683594 13.84375 17.539062 13.800781 17.328125 13.8125 C 17.125 13.824219 16.886719 13.765625 16.894531 14.101562 C 16.902344 14.707031 16.878906 15.308594 16.902344 15.914062 C 16.9375 16.761719 17.648438 17.382812 18.511719 17.351562 C 19.410156 17.324219 20.097656 16.679688 20.105469 15.84375 C 20.113281 15.28125 20.09375 14.71875 20.109375 14.15625 C 20.117188 13.867188 19.976562 13.804688 19.726562 13.8125 C 19.496094 13.820312 19.292969 13.8125 19.304688 14.148438 C 19.320312 14.699219 19.320312 15.25 19.292969 15.800781 C 19.269531 16.238281 19.046875 16.492188 18.691406 16.566406 C 18.308594 16.644531 17.96875 16.484375 17.738281 16.074219 M 27.914062 12.414062 C 28.042969 12.375 28.078125 12.257812 28.128906 12.160156 C 28.324219 11.773438 28.632812 11.503906 29.003906 11.300781 C 29.328125 11.121094 29.671875 11.015625 30.039062 10.964844 C 30.195312 10.945312 30.332031 10.894531 30.292969 10.695312 C 30.226562 10.378906 30.1875 10.054688 30.074219 9.753906 C 29.90625 9.3125 29.398438 9.074219 29.039062 9.269531 C 28.441406 9.585938 27.863281 9.9375 27.277344 10.273438 C 27.125 10.363281 27.082031 10.472656 27.121094 10.660156 C 27.210938 11.085938 27.273438 11.519531 27.324219 11.953125 C 27.378906 12.433594 27.367188 12.4375 27.914062 12.414062 M 10.96875 16.800781 C 11.164062 17.144531 11.484375 17.261719 11.855469 17.289062 C 11.976562 17.296875 12.109375 17.277344 12.097656 17.125 C 12.078125 16.921875 12.230469 16.597656 11.976562 16.546875 C 11.59375 16.472656 11.617188 16.253906 11.617188 15.988281 C 11.621094 14.855469 11.613281 13.722656 11.621094 12.589844 C 11.621094 12.339844 11.523438 12.25 11.285156 12.269531 C 11.097656 12.285156 10.871094 12.210938 10.871094 12.535156 C 10.867188 13.78125 10.847656 15.027344 10.839844 16.273438 C 10.839844 16.441406 10.882812 16.601562 10.96875 16.800781 M 11.753906 18.96875 C 11.929688 19.589844 12.480469 19.828125 13.027344 19.515625 C 13.386719 19.3125 13.753906 19.117188 14.113281 18.910156 C 14.222656 18.847656 14.347656 18.796875 14.4375 18.636719 C 13.503906 18.636719 12.617188 18.636719 11.738281 18.636719 C 11.691406 18.742188 11.714844 18.832031 11.753906 18.96875 M 29.769531 18.628906 C 29.003906 18.644531 28.238281 18.585938 27.453125 18.648438 C 27.535156 18.804688 27.664062 18.835938 27.765625 18.894531 C 28.117188 19.097656 28.480469 19.285156 28.832031 19.488281 C 29.371094 19.804688 29.871094 19.628906 30.101562 19.039062 C 30.230469 18.710938 30.191406 18.652344 29.769531 18.628906 M 20.589844 9.777344 C 20.742188 9.78125 20.800781 9.902344 20.867188 10.003906 C 21.03125 10.257812 21.253906 10.210938 21.46875 10.121094 C 21.65625 10.039062 21.683594 9.808594 21.527344 9.6875 C 21.378906 9.574219 21.214844 9.480469 21.027344 9.453125 C 20.785156 9.414062 20.542969 9.589844 20.589844 9.777344 Z M 20.589844 9.777344 "/>
<path style=" stroke:none;fill-rule:nonzero;fill:rgb(0%,0%,0%);fill-opacity:1;" d="M 22.339844 21.949219 C 22.53125 21.84375 22.691406 21.859375 22.773438 22.046875 C 22.855469 22.238281 22.699219 22.355469 22.5625 22.445312 C 22.414062 22.546875 22.238281 22.597656 22.082031 22.453125 C 21.996094 22.378906 22.015625 22.28125 22.082031 22.203125 C 22.15625 22.121094 22.242188 22.042969 22.339844 21.949219 Z M 22.339844 21.949219 "/>
<path style=" stroke:none;fill-rule:nonzero;fill:rgb(0%,0%,0%);fill-opacity:1;" d="M 25.222656 20.726562 C 25.378906 20.71875 25.449219 20.78125 25.378906 20.910156 C 25.335938 20.996094 25.234375 21.011719 25.164062 20.953125 C 25.054688 20.867188 25.121094 20.796875 25.222656 20.726562 Z M 25.222656 20.726562 "/>
<path style=" stroke:none;fill-rule:nonzero;fill:rgb(0%,0%,0%);fill-opacity:1;" d="M 29.546875 15.675781 C 29.78125 15.132812 30.261719 14.9375 30.773438 15.152344 C 31.046875 15.273438 31.191406 15.480469 31.210938 15.777344 C 31.230469 16.078125 31.105469 16.304688 30.851562 16.449219 C 30.539062 16.628906 30.21875 16.640625 29.90625 16.457031 C 29.617188 16.289062 29.492188 16.035156 29.546875 15.675781 Z M 29.546875 15.675781 "/>
<path style=" stroke:none;fill-rule:nonzero;fill:rgb(0%,0%,0%);fill-opacity:1;" d="M 30.8125 14.203125 C 30.472656 14.386719 30.15625 14.414062 29.859375 14.183594 C 29.636719 14.007812 29.558594 13.765625 29.632812 13.488281 C 29.707031 13.195312 29.976562 12.976562 30.292969 12.960938 C 30.605469 12.949219 30.863281 13.054688 31.015625 13.34375 C 31.160156 13.621094 31.097656 13.898438 30.8125 14.203125 Z M 30.8125 14.203125 "/>
<path style=" stroke:none;fill-rule:nonzero;fill:rgb(0%,0%,0%);fill-opacity:1;" d="M 21.542969 15.996094 C 21.351562 15.527344 21.40625 15.109375 21.746094 14.765625 C 22.046875 14.460938 22.429688 14.382812 22.839844 14.515625 C 23.296875 14.664062 23.585938 15.09375 23.570312 15.566406 C 23.554688 16.042969 23.242188 16.421875 22.765625 16.550781 C 22.285156 16.679688 21.835938 16.480469 21.542969 15.996094 Z M 21.542969 15.996094 "/>
<path style=" stroke:none;fill-rule:nonzero;fill:rgb(0%,0%,0%);fill-opacity:1;" d="M 15.371094 15.027344 C 15.582031 15.503906 15.515625 15.921875 15.179688 16.285156 C 14.910156 16.578125 14.4375 16.660156 14.054688 16.507812 C 13.632812 16.34375 13.371094 15.957031 13.382812 15.519531 C 13.394531 15.074219 13.660156 14.691406 14.070312 14.53125 C 14.457031 14.378906 14.949219 14.503906 15.230469 14.828125 C 15.28125 14.882812 15.316406 14.945312 15.371094 15.027344 Z M 15.371094 15.027344 "/>
</g>
</svg>
